# xmcd CD database file
#
# Track frame offsets:
#	182
#	17870
#	34462
#	52142
#	66160
#	87420
#	104215
#	120427
#	135525
#	149870
#	164885
#	179390
#
# Disc length: 2557 seconds
#
# Revision: 1
# Processed by: cddbd v1.4PL0 Copyright (c) Steve Scherf et al.
# Submitted via: CDex 1.50
#
DISCID=c309fb0c
DTITLE=Vince Gill - 35 All-Time Favorites - Disc 2
DYEAR=1997
DGENRE=Country
TTITLE0=Lucy Dee
TTITLE1=Midnight Train
TTITLE2=The Way Back Home
TTITLE3=I'm Goin' Away
TTITLE4=I Can't Believe
TTITLE5=Till The Best Comes Along
TTITLE6=Oklahoma Borderline
TTITLE7=She Don't Know
TTITLE8=Turn Me Loose
TTITLE9=Victim Of Life's Circumstances
TTITLE10=I've Been Hearing Things About You
TTITLE11=I Can't Hold Back
EXTD=YEAR: 1997
EXTT0=
EXTT1=
EXTT2=
EXTT3=
EXTT4=
EXTT5=
EXTT6=
EXTT7=
EXTT8=
EXTT9=
EXTT10=
EXTT11=
PLAYORDER=
